<svg width="25" height="25" viewBox="0 0 56 54" fill="none" xmlns="http://www.w3.org/2000/svg">
<path d="M28.13 53.7592C14.839 53.7592 0.5 45.4226 0.5 27.1296C0.5 8.83664 14.839 0.5 28.13 0.5C35.5139 0.5 42.3261 2.92953 47.3757 7.35986C52.8541 12.2189 55.76 19.0788 55.76 27.1296C55.76 35.1804 52.8541 41.9926 47.3757 46.8517C42.3261 51.282 35.4662 53.7592 28.13 53.7592Z" fill="url(#paint0_radial_1_10)"/>
<path d="M18.793 16.6683C16.7969 16.6683 14.9819 18.3547 14.9819 21.1558C14.9819 23.9569 16.7969 25.6385 18.793 25.6385C20.7938 25.6385 22.604 23.9522 22.604 21.1558C22.604 18.3595 20.8128 16.6683 18.793 16.6683Z" fill="#422B0D"/>
<path d="M18.6262 18.5405C17.9498 18.2165 17.1352 18.5024 16.8065 19.1788C16.554 19.7076 16.6683 20.3412 17.0923 20.7509C17.7688 21.0748 18.5834 20.789 18.9121 20.1125C19.1645 19.5838 19.0502 18.9502 18.6262 18.5405Z" fill="#896024"/>
<path d="M37.0859 16.6683C35.0899 16.6683 33.2749 18.3547 33.2749 21.1558C33.2749 23.9569 35.0899 25.6385 37.0859 25.6385C39.082 25.6385 40.897 23.9522 40.897 21.1558C40.897 18.3595 39.082 16.6683 37.0859 16.6683Z" fill="#422B0D"/>
<path d="M36.8954 18.5405C36.2189 18.2165 35.4043 18.5024 35.0756 19.1788C34.8231 19.7076 34.9375 20.3412 35.3614 20.7509C36.0379 21.0748 36.8525 20.789 37.1812 20.1125C37.4337 19.5838 37.3194 18.9502 36.8954 18.5405Z" fill="#896024"/>
<path d="M27.8442 40.8065C23.5234 40.8398 19.398 39.0248 16.5063 35.814C16.2872 35.5615 16.2348 35.2042 16.373 34.8993C16.5111 34.5897 16.816 34.3896 17.1542 34.3849C17.3067 34.3849 17.4591 34.4277 17.5925 34.504C19.8886 35.8235 23.7283 37.4623 27.8442 37.4623H27.9109C32.022 37.4623 35.8664 35.8235 38.1578 34.504C38.2912 34.4277 38.4436 34.3849 38.5961 34.3849C38.9343 34.3896 39.2392 34.5897 39.3773 34.8993C39.5202 35.2042 39.4678 35.5615 39.2439 35.814C36.3523 39.0248 32.2173 40.8446 27.8966 40.8065" fill="#422B0D"/>
<path d="M50.9438 11.2995C53.4829 15.3964 54.8072 20.2745 54.8072 25.7005C54.8072 33.7513 51.9013 40.5635 46.423 45.4226C41.3733 49.8529 34.5135 52.3301 27.1772 52.3301C18.5738 52.3301 9.55121 48.8287 4.22529 41.4019C9.35113 49.8148 18.993 53.7592 28.13 53.7592C35.4662 53.7592 42.3261 51.282 47.3757 46.8517C52.8541 41.9926 55.76 35.1804 55.76 27.1296C55.76 21.0605 54.107 15.6679 50.9438 11.2995Z" fill="#EB8F00"/>
<defs>
<radialGradient id="paint0_radial_1_10" cx="0" cy="0" r="1" gradientUnits="userSpaceOnUse" gradientTransform="translate(28.13 27.1296) scale(27.1344 27.1344)">
<stop offset="0.5" stop-color="#FDE030"/>
<stop offset="0.92" stop-color="#F7C02B"/>
<stop offset="1" stop-color="#F4A223"/>
</radialGradient>
</defs>
</svg>
